<svg width="51" height="31" viewBox="0 0 51 31" fill="none" xmlns="http://www.w3.org/2000/svg">
<g clip-path="url(#clip0_4_85)">
<path d="M49.7771 24.89C49.7891 24.9006 49.7977 24.9145 49.8017 24.93C49.8057 24.9455 49.805 24.9619 49.7996 24.977C49.7942 24.992 49.7844 25.0052 49.7715 25.0146C49.7586 25.0241 49.7431 25.0294 49.7271 25.03H41.3271C41.2384 25.0325 41.1523 25.0002 41.0871 24.94L34.3871 18.41L30.8271 21.96C30.7583 22.022 30.6697 22.0574 30.5771 22.06H23.0871C23.0702 22.0616 23.0533 22.0578 23.0387 22.0491C23.0242 22.0405 23.0127 22.0274 23.0061 22.0119C22.9994 21.9963 22.9978 21.979 23.0016 21.9625C23.0054 21.946 23.0143 21.9311 23.0271 21.92L32.8871 13.02H29.2571C29.1684 13.0225 29.0823 12.9902 29.0171 12.93L24.3271 8.59C24.3254 8.5778 24.3266 8.56537 24.3306 8.5537C24.3345 8.54203 24.3411 8.53142 24.3498 8.52271C24.3585 8.514 24.3691 8.50742 24.3808 8.50348C24.3925 8.49954 24.4049 8.49835 24.4171 8.5H30.0271C30.1107 8.49914 30.192 8.52743 30.2571 8.58L34.2571 12.02L40.7771 6.11C40.8433 6.05158 40.9288 6.01954 41.0171 6.02H46.7171C46.734 6.01842 46.7509 6.02223 46.7654 6.03088C46.78 6.03953 46.7914 6.05257 46.7981 6.06814C46.8048 6.08371 46.8063 6.10099 46.8026 6.1175C46.7988 6.134 46.7899 6.14889 46.7771 6.16L35.9571 16.81H39.8071C39.8863 16.807 39.9642 16.8317 40.0271 16.88L49.7771 24.88M11.3271 21.69V10.17C11.3214 10.0368 11.2798 9.90761 11.2067 9.7961C11.1336 9.6846 11.0317 9.5949 10.9119 9.53651C10.792 9.47812 10.6586 9.45319 10.5257 9.46437C10.3929 9.47554 10.2655 9.52241 10.1571 9.6L0.437091 16.43C0.350856 16.4866 0.280088 16.5637 0.231197 16.6545C0.182306 16.7453 0.156835 16.8469 0.157091 16.95V19.24C0.157091 19.2771 0.171841 19.3127 0.198096 19.339C0.224351 19.3653 0.259961 19.38 0.297091 19.38H8.77709V21.69H11.3271ZM8.61709 13.4C8.6711 13.3999 8.72305 13.4207 8.76216 13.4579C8.80126 13.4952 8.82452 13.5461 8.82709 13.6V17.19H3.72709C3.68298 17.192 3.63943 17.1794 3.60325 17.1541C3.56707 17.1287 3.54029 17.0921 3.52709 17.05C3.512 17.0098 3.51177 16.9656 3.52644 16.9252C3.54111 16.8849 3.56971 16.8511 3.60709 16.83L8.49709 13.44C8.53576 13.4254 8.57842 13.4254 8.61709 13.44M23.5371 11.61C24.3242 12.5221 24.7395 13.6968 24.7006 14.901C24.6617 16.1051 24.1714 17.2506 23.3271 18.11C22.7832 18.6375 22.1371 19.048 21.4285 19.3163C20.7199 19.5846 19.9639 19.705 19.2071 19.67H14.2071C14.0125 19.6727 13.8247 19.5987 13.6843 19.4639C13.544 19.3291 13.4623 19.1445 13.4571 18.95V10.5C13.4597 10.4041 13.4811 10.3097 13.5202 10.2221C13.5593 10.1345 13.6153 10.0555 13.685 9.98959C13.7546 9.92366 13.8366 9.87209 13.9262 9.83784C14.0158 9.8036 14.1112 9.78734 14.2071 9.79H19.2071C20.0196 9.74149 20.8325 9.87833 21.5844 10.1902C22.3363 10.502 23.0074 10.9807 23.5471 11.59M21.6371 16.5C22.0723 16.0121 22.3173 15.3838 22.3271 14.73C22.3265 14.089 22.0918 13.4702 21.6671 12.99C21.3753 12.6633 21.0155 12.4045 20.6129 12.2318C20.2104 12.059 19.7749 11.9765 19.3371 11.99H16.2471C16.2143 11.9887 16.1815 11.9938 16.1506 12.0052C16.1198 12.0165 16.0915 12.0338 16.0673 12.0561C16.0432 12.0784 16.0237 12.1052 16.0099 12.1351C15.9961 12.1649 15.9884 12.1972 15.9871 12.23V17.23C15.9884 17.2628 15.9961 17.2951 16.0099 17.3249C16.0237 17.3548 16.0432 17.3816 16.0673 17.4039C16.0915 17.4262 16.1198 17.4435 16.1506 17.4549C16.1815 17.4662 16.2143 17.4713 16.2471 17.47H19.3271C19.7599 17.4791 20.1896 17.3945 20.5866 17.2219C20.9836 17.0493 21.3386 16.7928 21.6271 16.47" fill="black"/>
</g>
<defs>
<clipPath id="clip0_4_85">
<rect width="50.03" height="30" fill="white" transform="translate(0.327087 0.5)"/>
</clipPath>
</defs>
</svg>
