<svg width="67" height="31" viewBox="0 0 67 31" fill="none" xmlns="http://www.w3.org/2000/svg">
<g clip-path="url(#clip0_4_86)">
<path d="M34.9655 9.5L28.5955 21.5H32.5955L33.7355 19.5H42.0155C42.1255 19.72 43.1155 21.59 43.1155 21.59H47.1155L40.7755 9.5H34.9655ZM34.9655 16.96L37.5455 12.05H38.1155L40.7055 16.96H34.9655ZM65.1155 9.5H60.4855C60.4855 9.5 57.2655 13.14 56.9355 13.5L53.4455 9.5H48.7755L53.7755 15.17L47.8655 21.6H52.8655L56.9755 17L61.0655 21.55H66.0656L60.1455 15.12L65.1155 9.5ZM0.0755463 9.5H3.91555V21.5H0.0755463V9.5ZM17.2755 17.01L13.3055 9.5H6.99555V21.5H10.3755V12.62H11.3055L15.8455 21.5H18.6855C18.6855 21.5 23.0955 12.85 23.2255 12.58H24.1555V21.5H27.5355V9.5H21.2255L17.2755 17.01Z" fill="black"/>
</g>
<defs>
<clipPath id="clip0_4_86">
<rect width="66.13" height="30" fill="white" transform="translate(0.375549 0.5)"/>
</clipPath>
</defs>
</svg>
