<?xml version="1.0" standalone="no"?>
<!DOCTYPE svg PUBLIC "-//W3C//DTD SVG 1.0//EN" "http://www.w3.org/TR/2001/REC-SVG-20010904/DTD/svg10.dtd">
<svg xmlns="http://www.w3.org/2000/svg" xmlns:xlink="http://www.w3.org/1999/xlink" id="body_1" width="1024" height="768">

<g transform="matrix(0.81528664 0 0 0.81528664 -0 257.22296)">
    <path d="M96.55 129.83L90.55 129.83L90.55 53C 92.420006 53 95.8 52.25 98.79 52.25C 122.4 52.25 127.65 63.489998 127.65 90.85C 128.03 120.83 120.16 129.83 96.54 129.83M98.04 3.5299988C 57.95 3.52 24.59 9.52 0.23 19.27L0.23 19.27L0.23 307.48C 27.59 301.48 57.57 295.49002 90.18 290.24002L90.18 290.24002L90.18 179.30002L95.8 179.30002C 180.13 179.30002 215.36 141.82002 215.36 91.23002C 215.74 44.010017 185.38 3.5300217 98.05 3.5300217" stroke="none" fill="#F58221" fill-rule="nonzero" />
    <path d="M318.8 7.27L226.22998 7.27L226.22998 273C 273.08 268.13 322.91998 264.38 375.01996 261.38L375.01996 261.38L375.01996 208.53L318.79996 208.53L318.79996 7.27L318.8 7.27z" stroke="none" fill="#F58221" fill-rule="nonzero" />
    <path d="M906.47 264.38C 960.43994 268.13 1011.41 273 1059.01 279L1059.01 279L1059.01 208.17L999.04004 208.17L999.04004 164.32L1049.64 164.32L1049.64 107.350006L999.04004 107.350006L999.04004 65.37001L1059.01 65.37001L1059.01 6.9L906.47003 6.9L906.47003 264.38L906.47 264.38z" stroke="none" fill="#F58221" fill-rule="nonzero" />
    <path d="M1081.49 7.27L1081.49 65.74L1122.34 65.74L1122.34 287.61C 1155.7 292.47998 1186.4299 298.11 1214.9099 304.09998L1214.9099 304.09998L1214.9099 65.74L1255.7599 65.74L1255.7599 7.27L1081.4799 7.27L1081.49 7.27z" stroke="none" fill="#F58221" fill-rule="nonzero" />
    <path d="M487.83 184.17L506.56998 113.34C 509.18997 103.21999 511.06998 92.729996 512.19 81.86L512.19 81.86L512.57 81.86C 513.32 92.36 515.19 103.22 517.44 113.72L517.44 113.72L533.56 184.18L487.84 184.18L487.83 184.17zM470.21 7.27L388.13 260.25C 414.37 258.75 441.35 257.63 469.08002 256.88L469.08002 256.88L475.83002 233.27L545.54004 233.27L550.79004 255.01001C 572.15 254.63 593.89 254.63 615.63 254.63L615.63 254.63L642.61 254.63L563.16 7.27L470.20996 7.27z" stroke="none" fill="#F58221" fill-rule="nonzero" />
    <path d="M798.53 7.27L798.53 90.1C 798.53 97.97 799.28 105.84 800.03 113.34L800.03 113.34L799.28 113.34C 795.91003 105.46999 791.79004 97.96999 786.91003 90.85L786.91003 90.85L731.44 7.27L656.11 7.27L656.11 254.63C 681.97 255.01001 707.82996 255.38 732.94 256.13L732.94 256.13L732.94 166.18001C 732.94 157.93001 732.19 149.69 731.44 141.82L731.44 141.82L732.19 141.82C 735.19 149.69 738.94 157.19 743.43 164.31001L743.43 164.31001L794.77997 258.01C 823.25995 259.13 851 260.63 877.98 262.51L877.98 262.51L875.73 7.280014L798.51996 7.280014L798.53 7.27z" stroke="none" fill="#F58221" fill-rule="nonzero" />
</g>
</svg>