<?xml version="1.0" encoding="UTF-8"?>
<svg xmlns="http://www.w3.org/2000/svg" xmlns:xlink="http://www.w3.org/1999/xlink" width="142px" height="35px" viewBox="0 0 141 35" version="1.1">
<g id="surface1">
<path style=" stroke:none;fill-rule:nonzero;fill:rgb(96.078431%,50.980392%,12.941176%);fill-opacity:1;" d="M 10.839844 14.609375 L 10.164062 14.609375 L 10.164062 5.964844 C 10.375 5.964844 10.753906 5.878906 11.089844 5.878906 C 13.742188 5.878906 14.332031 7.144531 14.332031 10.222656 C 14.371094 13.597656 13.488281 14.609375 10.835938 14.609375 M 11.007812 0.398438 C 6.503906 0.394531 2.761719 1.070312 0.0273438 2.167969 L 0.0273438 34.605469 C 3.097656 33.929688 6.460938 33.253906 10.125 32.664062 L 10.125 20.179688 L 10.753906 20.179688 C 20.222656 20.179688 24.175781 15.960938 24.175781 10.265625 C 24.21875 4.953125 20.8125 0.398438 11.007812 0.398438 "/>
<path style=" stroke:none;fill-rule:nonzero;fill:rgb(96.078431%,50.980392%,12.941176%);fill-opacity:1;" d="M 35.789062 0.816406 L 25.398438 0.816406 L 25.398438 30.722656 C 30.65625 30.175781 36.25 29.753906 42.101562 29.414062 L 42.101562 23.46875 L 35.789062 23.46875 Z M 35.789062 0.816406 "/>
<path style=" stroke:none;fill-rule:nonzero;fill:rgb(96.078431%,50.980392%,12.941176%);fill-opacity:1;" d="M 101.761719 29.753906 C 107.820312 30.175781 113.542969 30.722656 118.886719 31.398438 L 118.886719 23.425781 L 112.152344 23.425781 L 112.152344 18.492188 L 117.832031 18.492188 L 117.832031 12.082031 L 112.152344 12.082031 L 112.152344 7.355469 L 118.886719 7.355469 L 118.886719 0.777344 L 101.761719 0.777344 Z M 101.761719 29.753906 "/>
<path style=" stroke:none;fill-rule:nonzero;fill:rgb(96.078431%,50.980392%,12.941176%);fill-opacity:1;" d="M 121.410156 0.816406 L 121.410156 7.398438 L 125.996094 7.398438 L 125.996094 32.367188 C 129.738281 32.914062 133.191406 33.550781 136.386719 34.222656 L 136.386719 7.398438 L 140.972656 7.398438 L 140.972656 0.816406 L 121.40625 0.816406 Z M 121.410156 0.816406 "/>
<path style=" stroke:none;fill-rule:nonzero;fill:rgb(96.078431%,50.980392%,12.941176%);fill-opacity:1;" d="M 54.765625 20.726562 L 56.867188 12.753906 C 57.164062 11.617188 57.375 10.4375 57.5 9.210938 L 57.542969 9.210938 C 57.625 10.394531 57.835938 11.617188 58.089844 12.796875 L 59.898438 20.726562 Z M 52.785156 0.816406 L 43.570312 29.289062 C 46.519531 29.121094 49.546875 28.992188 52.660156 28.910156 L 53.417969 26.253906 L 61.242188 26.253906 L 61.832031 28.699219 C 64.230469 28.65625 66.671875 28.65625 69.113281 28.65625 L 72.140625 28.65625 L 63.222656 0.816406 Z M 52.785156 0.816406 "/>
<path style=" stroke:none;fill-rule:nonzero;fill:rgb(96.078431%,50.980392%,12.941176%);fill-opacity:1;" d="M 89.644531 0.816406 L 89.644531 10.140625 C 89.644531 11.027344 89.726562 11.910156 89.8125 12.753906 L 89.726562 12.753906 C 89.351562 11.871094 88.886719 11.027344 88.339844 10.222656 L 82.113281 0.816406 L 73.65625 0.816406 L 73.65625 28.65625 C 76.558594 28.699219 79.460938 28.742188 82.28125 28.824219 L 82.28125 18.703125 C 82.28125 17.773438 82.195312 16.847656 82.113281 15.960938 L 82.195312 15.960938 C 82.535156 16.847656 82.953125 17.691406 83.457031 18.492188 L 89.222656 29.035156 C 92.421875 29.164062 95.535156 29.332031 98.5625 29.542969 L 98.308594 0.820312 L 89.644531 0.820312 Z M 89.644531 0.816406 "/>
</g>
</svg>
