<svg width="91" height="31" viewBox="0 0 91 31" fill="none" xmlns="http://www.w3.org/2000/svg">
<path d="M90.3456 24.2C90.4456 24.2 90.3456 24.3 90.3456 24.3H82.8456C82.7456 24.3 82.6456 24.3 82.6456 24.2L76.7456 18.2L73.5456 21.5C73.4456 21.6 73.4456 21.6 73.3456 21.6H66.7456C66.6456 21.6 66.6456 21.5 66.6456 21.5L75.3456 13.3H72.1456C72.0456 13.3 71.9456 13.3 71.9456 13.2L67.8456 9.19995C67.8456 9.19995 67.8456 9.09995 67.9456 9.09995H72.9456C73.0456 9.09995 73.0456 9.09995 73.1456 9.19995L76.7456 12.4L82.5456 6.89995C82.4456 6.69995 82.4456 6.69995 82.5456 6.69995H87.6456C87.7456 6.69995 87.7456 6.79995 87.7456 6.79995L78.0456 16.7H81.4456C81.5456 16.7 81.5456 16.7 81.6456 16.8L90.3456 24.2ZM62.7456 10.2V17C62.7456 17.2 62.6456 17.3 62.4456 17.3C62.2456 17.3 62.1456 17.2 62.0456 17L58.0456 11C57.8456 10.7 57.3456 9.99995 55.8456 9.99995C54.6456 9.99995 53.8456 10.6 53.8456 11.9V19.3H55.9456V12.5C55.9456 12.3 56.0456 12.2 56.2456 12.2C56.4456 12.2 56.5456 12.3 56.6456 12.5L60.6456 18.6C60.9456 19 61.4456 19.6 62.8456 19.6C63.2456 19.6 63.5456 19.5 63.8456 19.4C64.3456 19.2 64.8456 18.7 64.8456 17.7V10.2H62.7456ZM11.5456 14.8C11.5456 16.3 12.2456 17.4 12.7456 17.9C13.7456 18.9 14.8456 19.3 16.4456 19.3H20.7456V17.4H16.4456C15.2456 17.4 14.6456 16.8 14.3456 16.5C14.1456 16.3 13.7456 15.7 13.7456 14.8C13.7456 14 14.1456 13.4 14.3456 13.1C14.5456 12.9 15.1456 12.2 16.4456 12.2H20.7456V10.2H16.4456C14.2456 10.2 13.1456 11.2 12.5456 11.9C12.1456 12.4 11.5456 13.4 11.5456 14.8ZM10.3456 10.2H3.84558C2.84558 10.2 2.04558 10.4 1.44558 11.1C1.04558 11.6 0.845581 12.2 0.845581 13C0.845581 13.7 1.04558 14.4 1.54558 14.9C1.84558 15.3 2.44558 15.7 3.84558 15.7H7.54558C8.04558 15.7 8.24558 15.8 8.34558 16C8.54558 16.2 8.64558 16.4 8.64558 16.6C8.64558 16.8 8.54558 17 8.44558 17.2C8.24558 17.4 8.04558 17.5 7.54558 17.5H1.04558V19.4H7.64558C9.04558 19.4 9.64558 18.9 10.0456 18.4C10.3456 18 10.6456 17.4 10.6456 16.7C10.6456 16.1 10.4456 15.5 10.0456 15C9.54558 14.5 8.84558 14 7.64558 14H3.94558C3.64558 14 3.34558 13.9 3.14558 13.7C2.94558 13.4 2.94558 13.3 2.94558 13.1C2.94558 12.9 3.04558 12.7 3.14558 12.5C3.34558 12.3 3.64558 12.2 3.84558 12.2H10.2456V10.2H10.3456ZM34.3456 10.2C33.4456 10.2 33.0456 10.6 33.0456 11.4V18C33.0456 18.8 33.4456 19.3 34.3456 19.3H42.2456V17.4H35.4456C35.2456 17.4 35.1456 17.3 35.1456 17.1V15.7H42.2456V13.9H35.1456V12.5C35.1456 12.3 35.2456 12.2 35.4456 12.2H42.2456V10.2H34.3456ZM44.7456 10.2C43.8456 10.2 43.4456 10.6 43.4456 11.4V18C43.4456 18.8 43.8456 19.3 44.7456 19.3H52.6456V17.4H45.8456C45.6456 17.4 45.5456 17.3 45.5456 17.1V15.7H52.6456V13.9H45.5456V12.5C45.5456 12.3 45.6456 12.2 45.8456 12.2H52.6456V10.2H44.7456ZM31.8456 18.5C31.8456 18.7 31.8456 18.9 31.8456 19C31.8456 19.1 31.8456 19.3 31.8456 19.4H29.8456C29.8456 19.2 29.8456 18.9 29.8456 18.7V17C29.8456 16.7 29.7456 16.4 29.5456 16.2C29.3456 16 29.0456 15.9 28.6456 15.9H24.0456V19.3H22.0456V11.4C22.0456 10.6 22.4456 10.2 23.3456 10.2H29.0456C31.2456 10.2 31.9456 11.8 31.9456 12.8C31.9456 13.2 31.8456 13.6 31.7456 13.9C31.6456 14.2 31.3456 14.5 30.9456 14.8C31.2456 15 31.4456 15.2 31.6456 15.5C31.7456 15.7 31.8456 16.2 31.8456 16.7V18.5ZM29.1456 14C29.5456 13.8 29.7456 13.5 29.7456 13.1C29.7456 12.7 29.5456 12.3 29.1456 12.2C29.0456 12.1 28.8456 12.1 28.5456 12.1H24.4456C24.3456 12.1 24.2456 12.2 24.2456 12.3V14H28.6456C28.7456 14.1 29.0456 14.1 29.1456 14Z" fill="black"/>
</svg>
